<svg xmlns="http://www.w3.org/2000/svg" width="152" height="152" viewBox="0 0 152 152" fill="none">
<rect width="152" height="152" rx="24" fill="#F5F5FA"/>
<circle cx="76" cy="76" r="32" fill="url(#paint0_linear_1_425)"/>
<path fill-rule="evenodd" clip-rule="evenodd" d="M90.8579 87.1417C90.8579 88.0955 90.1115 88.9249 89.1577 89.0078L85.5084 89.1737C83.1031 90.0031 79.7027 90.5007 75.929 90.5007C72.1553 90.5007 68.7548 90.0031 66.3496 89.1737L62.7002 89.0078C61.7464 88.9249 61 88.0955 61 87.1417C61 86.1879 61.6635 85.4 62.5758 85.2756H62.6588C62.6588 84.8609 62.6588 84.3633 62.6588 83.8657C62.6588 70.4711 69.2939 67.2779 73.3993 65.6191H78.1268C82.5641 67.2779 89.1992 71.3004 89.1992 83.8657C89.1992 84.4048 89.1992 84.8194 89.1992 85.2756H89.2821C90.1944 85.4 90.8579 86.1879 90.8579 87.1417ZM74.8508 74.7839C74.8922 74.618 75.0166 74.1204 75.6387 74.0789C76.3022 73.9959 76.9242 74.3692 77.2145 74.9912C77.4218 75.5303 78.0439 75.7791 78.583 75.5303C79.1221 75.323 79.3295 74.7009 79.1221 74.1618C78.7489 73.291 78.0439 72.6275 77.2145 72.2957V71.6322C77.2145 71.0516 76.7169 70.5955 76.1778 70.5955C75.5972 70.5955 75.141 71.0516 75.141 71.6322V72.0469C73.9384 72.2957 73.0261 73.1666 72.8188 74.4106C72.5699 75.7377 73.192 77.0232 74.3946 77.6452L76.551 78.7235C76.9657 78.9723 77.0901 79.387 77.0072 79.7187C77.0072 79.9261 76.8828 80.3408 76.3022 80.4237L76.2193 80.4652C75.5557 80.5066 74.9337 80.1334 74.6434 79.5114C74.4361 79.0137 73.814 78.7649 73.2749 78.9723C72.7358 79.2211 72.5285 79.8431 72.7358 80.3408C73.192 81.3775 74.1043 82.1239 75.141 82.4142V82.8289C75.141 83.4095 75.5972 83.8657 76.1778 83.8657C76.7169 83.8657 77.2145 83.4095 77.2145 82.8289V82.3313C78.1683 81.9995 78.9147 81.1287 79.0806 80.0505C79.288 78.7234 78.6659 77.4794 77.5048 76.8988L75.3484 75.7791C74.7678 75.4888 74.8093 74.9497 74.8508 74.7839Z" fill="white"/>
<path d="M79.4542 56.7028C78.7492 56.2052 77.5051 56.6613 76.4684 57.6566C75.9708 58.1542 75.1828 58.1542 74.6852 57.6566C73.6485 56.6613 72.4459 56.2466 71.6994 56.7028C69.2942 58.1542 72.5288 63.255 72.8606 63.5452H78.3345C78.6248 63.255 81.735 58.1542 79.4542 56.7028Z" fill="white"/>
<defs>
<linearGradient id="paint0_linear_1_425" x1="54.4615" y1="44" x2="108" y2="108" gradientUnits="userSpaceOnUse">
<stop stop-color="#6879FF"/>
<stop offset="1" stop-color="#4253ED"/>
</linearGradient>
</defs>
</svg>