<svg width="152" height="152" viewBox="0 0 152 152" fill="none" xmlns="http://www.w3.org/2000/svg">
<rect width="152" height="152" rx="24" fill="#F5F5FA"/>
<circle cx="76" cy="76" r="32" fill="url(#paint0_linear_1_433)"/>
<path d="M64.7804 63.5843C64.7492 63.5906 64.6429 63.6156 64.5492 63.6343C64.2929 63.6906 63.9555 64.0155 63.843 64.3155C63.7555 64.553 63.7492 65.4592 63.7617 73.4335L63.7805 82.2828L63.9742 82.5265C64.3179 82.9515 64.4679 83.0015 65.5366 83.0515C66.6427 83.1077 66.949 83.139 67.9676 83.3015C70.7174 83.7514 73.0985 84.8763 74.8296 86.5387L75.1233 86.8199V77.8269C75.1233 72.8773 75.0983 68.7214 75.0671 68.5902C74.9171 67.9527 73.4484 66.3278 72.3735 65.6092C70.7799 64.553 68.7426 63.8655 66.624 63.6781C65.8178 63.6031 64.8741 63.5593 64.7804 63.5843Z" fill="white"/>
<path d="M86.1555 63.6121C83.5307 63.7683 81.4371 64.412 79.6248 65.6182C78.5499 66.3244 77.0812 67.9555 76.9312 68.5929C76.9 68.7242 76.875 72.8801 76.875 77.8234V86.8164L77.2062 86.5102C78.9873 84.8353 81.2871 83.7542 84.0307 83.3042C85.0493 83.1417 85.3556 83.1105 86.4617 83.0542C87.5304 83.0042 87.6804 82.9543 88.0241 82.5293L88.2178 82.2856L88.2366 73.4675C88.2491 67.3118 88.2366 64.5745 88.1866 64.412C88.1116 64.137 87.8616 63.8308 87.6304 63.7121C87.3804 63.5808 87.0429 63.5621 86.1555 63.6121Z" fill="white"/>
<path d="M60.6564 67.6672C60.3564 67.8046 60.2252 67.9421 60.0939 68.2546C60.0127 68.4546 60.0002 69.5545 60.0002 77.7663C60.0002 87.853 59.9814 87.2843 60.3314 87.6593C60.6689 88.028 61.0376 88.0717 62.0125 87.8655C65.7435 87.0843 69.6681 86.9781 72.6554 87.578C73.0616 87.6593 73.4116 87.7218 73.4241 87.7093C73.4616 87.6655 72.8304 87.1468 72.3117 86.8031C71.018 85.9407 69.3494 85.3282 67.4183 85.0095C67.1183 84.9595 66.2747 84.8845 65.5435 84.8345C64.731 84.7783 64.1186 84.7095 63.9561 84.647C63.0812 84.3345 62.3937 83.6159 62.125 82.7409C62.0063 82.3597 62 82.1222 62 74.9478V67.5484H61.4563C61.0563 67.5484 60.8376 67.5859 60.6564 67.6672Z" fill="white"/>
<path d="M90.0018 74.9478C90.0018 82.1222 89.9956 82.3597 89.8768 82.7409C89.6081 83.6159 88.9207 84.3345 88.0457 84.647C87.8832 84.7095 87.2833 84.7783 86.4709 84.8345C85.7522 84.8782 84.9647 84.947 84.721 84.9845C82.7837 85.2845 80.9901 85.9344 79.6902 86.8031C79.1777 87.1468 78.5403 87.6655 78.5778 87.7093C78.5903 87.7218 78.9402 87.6593 79.3464 87.578C82.3337 86.9781 86.2584 87.0843 89.9893 87.8655C90.9642 88.0717 91.333 88.028 91.6704 87.6593C92.0204 87.2843 92.0017 87.853 92.0017 77.7538C92.0017 68.8671 91.9954 68.4421 91.8829 68.2046C91.6579 67.7172 91.3142 67.5484 90.533 67.5484H90.0018V74.9478Z" fill="white"/>
<defs>
<linearGradient id="paint0_linear_1_433" x1="54.4615" y1="44" x2="108" y2="108" gradientUnits="userSpaceOnUse">
<stop stop-color="#6879FF"/>
<stop offset="1" stop-color="#4253ED"/>
</linearGradient>
</defs>
</svg>
