<svg width="18" height="18" viewBox="0 0 18 18" fill="none" xmlns="http://www.w3.org/2000/svg">
<path d="M9.7105 8.71214V4.97365C9.7105 4.77235 9.64239 4.60361 9.50616 4.46742C9.36991 4.33124 9.20109 4.26315 8.99969 4.26315C8.79828 4.26315 8.62956 4.33124 8.49353 4.46742C8.35751 4.60361 8.28949 4.77235 8.28949 4.97365V8.93077C8.28949 9.04229 8.31014 9.15033 8.35143 9.25489C8.39272 9.35945 8.4577 9.45606 8.54637 9.54474L11.7911 12.7895C11.9223 12.9206 12.0872 12.9878 12.2857 12.9908C12.4843 12.9938 12.6522 12.9267 12.7895 12.7895C12.9267 12.6522 12.9953 12.4859 12.9953 12.2903C12.9953 12.0948 12.9267 11.9284 12.7895 11.7911L9.7105 8.71214ZM9.00159 18C7.7568 18 6.58677 17.7638 5.49148 17.2914C4.39618 16.8189 3.44342 16.1778 2.63322 15.368C1.82299 14.5581 1.18157 13.6058 0.708941 12.511C0.236314 11.4162 0 10.2464 0 9.00159C0 7.7568 0.236211 6.58677 0.708634 5.49148C1.18106 4.39618 1.82219 3.44343 2.63203 2.63322C3.44189 1.823 4.39423 1.18157 5.48904 0.708942C6.58384 0.236315 7.75363 0 8.99841 0C10.2432 0 11.4132 0.236212 12.5085 0.708634C13.6038 1.18106 14.5566 1.82219 15.3668 2.63203C16.177 3.44189 16.8184 4.39423 17.2911 5.48904C17.7637 6.58384 18 7.75363 18 8.99841C18 10.2432 17.7638 11.4132 17.2914 12.5085C16.8189 13.6038 16.1778 14.5566 15.368 15.3668C14.5581 16.177 13.6058 16.8184 12.511 17.2911C11.4162 17.7637 10.2464 18 9.00159 18ZM9 16.579C11.1 16.579 12.8882 15.8408 14.3645 14.3645C15.8408 12.8882 16.579 11.1 16.579 9C16.579 6.89999 15.8408 5.11183 14.3645 3.63551C12.8882 2.15919 11.1 1.42103 9 1.42103C6.89999 1.42103 5.11183 2.15919 3.63551 3.63551C2.15919 5.11183 1.42103 6.89999 1.42103 9C1.42103 11.1 2.15919 12.8882 3.63551 14.3645C5.11183 15.8408 6.89999 16.579 9 16.579Z" fill="#4253ED"/>
</svg>