<svg xmlns="http://www.w3.org/2000/svg" width="152" height="152" viewBox="0 0 152 152" fill="none">
<rect width="152" height="152" rx="24" fill="#F5F5FA"/>
<circle cx="76" cy="76" r="32" fill="url(#paint0_linear_1_415)"/>
<path d="M74.743 60.494C74.5437 60.5538 74.1586 60.753 73.8797 60.939C69.1848 64.1265 60.5055 70.0897 60.3527 70.2358C60.2332 70.3421 60.0539 70.5878 59.9543 70.7737C59.7816 71.0858 59.7617 71.1788 59.7617 71.7499C59.7617 72.2812 59.7883 72.4272 59.9145 72.6663C60.1469 73.1046 60.4988 73.4565 60.9105 73.6558C61.402 73.9015 62.1855 73.9147 62.6504 73.7022C62.8164 73.6226 65.725 71.6636 69.1184 69.3394L75.2941 65.1159L75.4602 65.2355C77.698 66.7894 87.6723 73.5694 87.8848 73.6823C88.323 73.9081 89.1797 73.9081 89.6445 73.6757C90.8598 73.078 91.2383 71.5706 90.448 70.4882C90.2687 70.2425 88.9738 69.3261 83.3094 65.448C79.5043 62.8448 76.2637 60.6601 76.1043 60.587C75.7059 60.4144 75.1746 60.3745 74.743 60.494Z" fill="white"/>
<path d="M69.6316 70.7078L63.9805 74.5727V80.4828C63.9805 85.543 63.9937 86.4527 64.0801 86.7848C64.3855 87.9602 65.282 88.9164 66.4309 89.2949C66.8426 89.4277 67.0219 89.441 69.3129 89.4676L71.75 89.4941V84.434C71.75 80.6156 71.7699 79.3008 71.8297 79.0949C71.9359 78.743 72.3676 78.3113 72.7195 78.2051C72.9121 78.152 73.6758 78.1254 75.3492 78.1254H77.7L78.052 78.298C78.5035 78.5238 78.7691 78.9156 78.8289 79.4535L78.8688 79.8254L79.2273 79.7059C79.4398 79.6328 79.898 79.5664 80.323 79.5398C80.9141 79.5066 81.0668 79.4801 81.0934 79.3938C81.2195 79.0086 81.5184 78.5371 81.8438 78.2316C82.5941 77.5145 83.059 77.3949 85.1508 77.3949H86.625V75.9805L86.6184 74.5727L81.0336 70.7543C77.9656 68.6559 75.4156 66.916 75.3691 66.8895C75.3227 66.8563 73.0848 68.3504 69.6316 70.7078Z" fill="white"/>
<path d="M83.2044 78.9613C82.62 79.2734 82.381 79.7117 82.3743 80.4621V80.9734L80.9997 80.9933C79.4591 81.0132 79.3528 81.0464 78.7884 81.5511C78.2771 82.016 78.0048 82.939 78.1841 83.6031C78.2638 83.9152 78.5892 84.3269 78.8548 84.4664C78.9544 84.5195 80.3224 84.8449 81.8829 85.1968C84.0478 85.6749 84.8446 85.8277 85.2099 85.8277C85.5751 85.8277 86.3587 85.6816 88.404 85.23C89.8915 84.898 91.2064 84.5992 91.3259 84.5593C91.6247 84.4597 91.9833 84.141 92.1493 83.8156C92.2622 83.5898 92.2821 83.457 92.2556 83.0121C92.2157 82.3613 92.0298 81.9363 91.5849 81.5312C91.0669 81.0531 90.9474 81.0265 89.4134 80.98L88.0521 80.9468L88.0189 80.3425C87.979 79.6585 87.8462 79.3863 87.3946 79.0675L87.1357 78.8882L85.2696 78.8749C83.6626 78.8617 83.3771 78.8749 83.2044 78.9613ZM86.6243 80.6148V80.98L85.2165 80.9667L83.8021 80.9468L83.7821 80.5949L83.7622 80.2496H85.19H86.6243V80.6148Z" fill="white"/>
<path d="M78.8681 87.9992C78.8881 90.0113 78.8881 90.0511 79.0474 90.3699C79.2666 90.8082 79.6517 91.18 80.1099 91.3992L80.4818 91.5718H85.1967H89.9115L90.2767 91.3992C90.808 91.1535 91.1068 90.8613 91.3525 90.3566L91.5716 89.9117L91.5916 87.9328C91.6115 86.0402 91.6115 85.9472 91.492 85.9804C91.4256 86.0003 90.1506 86.2925 88.6498 86.6246C85.0306 87.4347 85.4224 87.4347 81.8099 86.6312C80.3158 86.2925 79.0342 86.007 78.9677 85.9871C78.8549 85.9539 78.8482 86.0535 78.8681 87.9992Z" fill="white"/>
<defs>
<linearGradient id="paint0_linear_1_415" x1="54.4615" y1="44" x2="108" y2="108" gradientUnits="userSpaceOnUse">
<stop stop-color="#6879FF"/>
<stop offset="1" stop-color="#4253ED"/>
</linearGradient>
</defs>
</svg>