<svg xmlns="http://www.w3.org/2000/svg" width="56" height="56" viewBox="0 0 56 56" fill="none">
<g id="box">
<circle id="Ellipse 282" cx="28" cy="28" r="26" fill="url(#paint0_linear_1_121)"/>
<g id="Page-1">
<path id="Union" fill-rule="evenodd" clip-rule="evenodd" d="M29.75 17.082C29.75 16.1155 28.9665 15.332 28 15.332C27.0335 15.332 26.25 16.1155 26.25 17.082V28.4431L22.1515 24.3446C21.4681 23.6612 20.36 23.6612 19.6766 24.3446C18.9932 25.028 18.9932 26.1361 19.6766 26.8195L25.7582 32.9011C26.9949 34.1377 28.9999 34.1377 30.2366 32.9011L36.3182 26.8195C37.0016 26.1361 37.0016 25.028 36.3182 24.3446C35.6347 23.6612 34.5267 23.6612 33.8433 24.3446L29.75 28.4379V17.082ZM18.0859 36.582C17.1194 36.582 16.3359 37.3655 16.3359 38.332C16.3359 39.2985 17.1194 40.082 18.0859 40.082H37.9193C38.8858 40.082 39.6693 39.2985 39.6693 38.332C39.6693 37.3655 38.8858 36.582 37.9193 36.582H18.0859Z" fill="white"/>
</g>
</g>
<defs>
<linearGradient id="paint0_linear_1_121" x1="10.5" y1="2" x2="54" y2="54" gradientUnits="userSpaceOnUse">
<stop stop-color="#6879FF"/>
<stop offset="1" stop-color="#4253ED"/>
</linearGradient>
</defs>
</svg>