<svg xmlns="http://www.w3.org/2000/svg" width="56" height="56" viewBox="0 0 56 56" fill="none">
<circle cx="28" cy="28" r="26" fill="url(#paint0_linear_1_137)"/>
<path fill-rule="evenodd" clip-rule="evenodd" d="M20.2733 16H35.7267C37.212 16 37.752 16.1547 38.2947 16.4454C38.8373 16.736 39.264 17.1627 39.5547 17.7054C39.8453 18.2481 40 18.7868 40 20.2736V30.2875L34.1453 24.8832C33.9329 24.6871 33.6805 24.5395 33.4055 24.4504C33.1304 24.3613 32.8394 24.3329 32.5524 24.3671C32.2653 24.4013 31.9891 24.4974 31.7428 24.6486C31.4964 24.7998 31.2858 25.0027 31.1253 25.2432L26.952 31.5035L23.8813 29.5301C23.472 29.2671 22.9807 29.1623 22.4997 29.2355C22.0186 29.3086 21.5807 29.5546 21.268 29.9274L16.0067 36.2011C16.0023 36.0434 16.0001 35.8856 16 35.7278V20.2736C16 18.7868 16.1547 18.2481 16.4453 17.7054C16.736 17.1627 17.1627 16.736 17.7053 16.4454C18.248 16.1547 18.7867 16 20.2733 16ZM32.9093 27.374L40 33.917V35.7264C40 37.2118 39.8453 37.7519 39.5547 38.2946C39.2705 38.8314 38.8315 39.2704 38.2947 39.5546C37.752 39.8453 37.2133 40 35.7267 40H20.2733C18.7867 40 18.248 39.8453 17.7053 39.5546C17.4708 39.4299 17.2534 39.2753 17.0587 39.0946L22.9333 32.0902L26.0613 34.101C26.5027 34.3846 27.0378 34.4834 27.5513 34.3762C28.0649 34.2689 28.5157 33.9642 28.8067 33.5276L32.9093 27.374ZM22.6507 20.0002C21.1707 20.0002 20 21.1096 20 22.651C20 24.1938 21.172 25.3339 22.6507 25.3339C24.1613 25.3339 25.3333 24.1938 25.3333 22.651C25.3333 21.1096 24.1613 20.0002 22.6507 20.0002Z" fill="white"/>
<defs>
<linearGradient id="paint0_linear_1_137" x1="10.5" y1="2" x2="54" y2="54" gradientUnits="userSpaceOnUse">
<stop stop-color="#6879FF"/>
<stop offset="1" stop-color="#4253ED"/>
</linearGradient>
</defs>
</svg>