<svg xmlns="http://www.w3.org/2000/svg" width="56" height="56" viewBox="0 0 56 56" fill="none">
<circle cx="28" cy="28" r="26" fill="url(#paint0_linear_1_133)"/>
<path fill-rule="evenodd" clip-rule="evenodd" d="M30.9303 17.2231C30.331 16.0096 29.3363 15 27.9956 15C26.6566 15 25.659 16.0076 25.0544 17.2198L25.0533 17.222L23.1513 21.055L23.1469 21.0638C23.1237 21.1115 23.0345 21.2347 22.8621 21.3635C22.691 21.4913 22.5469 21.5433 22.4928 21.5529L19.0485 22.1295C17.74 22.3492 16.5255 23.0119 16.1251 24.2752C15.7251 25.5373 16.3317 26.7862 17.268 27.7297L19.9481 30.4302C19.9969 30.4793 20.0883 30.6167 20.1497 30.833C20.2104 31.0463 20.2072 31.2148 20.1912 31.2898L19.4252 34.627C19.098 36.0521 19.1672 37.6491 20.3447 38.5148C21.5 39 23.0524 38.9613 24.3025 38.2138L27.5273 36.2903C27.6023 36.2473 27.7713 36.1929 28.001 36.1929C28.2342 36.1929 28.3972 36.2489 28.4608 36.2869L31.6925 38.2145L31.6935 38.2151C32.9432 38.9589 34.4757 39.3838 35.6528 38.5192C36.832 37.653 36.8946 36.0522 36.5689 34.6281L35.8027 31.2898C35.7867 31.2149 35.7835 31.0464 35.8441 30.833C35.9056 30.6167 35.9969 30.4793 36.0457 30.4302L38.723 27.7325L38.7245 27.731C39.6666 26.7875 40.2754 25.5373 39.8721 24.273C39.4694 23.0107 38.2533 22.3491 36.946 22.1296L33.4986 21.5525C33.4386 21.5424 33.2914 21.4892 33.1201 21.3618C32.9479 21.2338 32.8592 21.1111 32.8361 21.0638L30.9309 17.2242L30.9303 17.2231Z" fill="white"/>
<defs>
<linearGradient id="paint0_linear_1_133" x1="10.5" y1="2" x2="54" y2="54" gradientUnits="userSpaceOnUse">
<stop stop-color="#6879FF"/>
<stop offset="1" stop-color="#4253ED"/>
</linearGradient>
</defs>
</svg>