<svg xmlns="http://www.w3.org/2000/svg" width="56" height="56" viewBox="0 0 56 56" fill="none">
<circle cx="28" cy="28" r="26" fill="url(#paint0_linear_1_127)"/>
<g clip-path="url(#clip0_1_127)">
<path fill-rule="evenodd" clip-rule="evenodd" d="M33.3333 29.6667C35.0513 29.6668 36.7029 30.33 37.9437 31.5182C39.1845 32.7064 39.9188 34.3277 39.9933 36.044L40 36.3333V37.6667C40.0002 38.3394 39.7461 38.9874 39.2887 39.4807C38.8312 39.974 38.2042 40.2762 37.5333 40.3267L37.3333 40.3333H18.6667C17.9939 40.3335 17.3459 40.0794 16.8526 39.622C16.3593 39.1645 16.0571 38.5375 16.0067 37.8667L16 37.6667V36.3333C16.0001 34.6154 16.6634 32.9638 17.8515 31.723C19.0397 30.4821 20.661 29.7479 22.3773 29.6733L22.6667 29.6667H33.3333ZM28 13.6667C29.7681 13.6667 31.4638 14.369 32.714 15.6193C33.9643 16.8695 34.6667 18.5652 34.6667 20.3333C34.6667 22.1014 33.9643 23.7971 32.714 25.0474C31.4638 26.2976 29.7681 27 28 27C26.2319 27 24.5362 26.2976 23.286 25.0474C22.0357 23.7971 21.3333 22.1014 21.3333 20.3333C21.3333 18.5652 22.0357 16.8695 23.286 15.6193C24.5362 14.369 26.2319 13.6667 28 13.6667Z" fill="white"/>
</g>
<defs>
<linearGradient id="paint0_linear_1_127" x1="10.5" y1="2" x2="54" y2="54" gradientUnits="userSpaceOnUse">
<stop stop-color="#6879FF"/>
<stop offset="1" stop-color="#4253ED"/>
</linearGradient>
<clipPath id="clip0_1_127">
<rect width="32" height="32" fill="white" transform="translate(12 11)"/>
</clipPath>
</defs>
</svg>