<svg xmlns="http://www.w3.org/2000/svg" width="56" height="56" viewBox="0 0 56 56" fill="none">
<circle cx="28" cy="28" r="26" fill="url(#paint0_linear_1_323)"/>
<path d="M19.0439 16.2708L15.2705 20.0443L16.6872 21.4583L18.5726 19.5729L19.5153 20.5156L17.6299 22.4011L19.5153 24.2865L21.4007 22.4011L22.3434 23.3438L20.458 25.2292L22.3434 27.1146L26.1143 23.3438L19.0439 16.2708ZM36.3773 16.8516L32.8226 20.4063L36.5934 24.1771L40.1481 20.6224C39.6373 19.9042 39.0761 19.2119 38.432 18.5677C37.7878 17.9236 37.0955 17.3624 36.3773 16.8516ZM30.9372 22.2917L16.7939 36.4349L15.8512 41.1484L20.5648 40.2057L34.708 26.0625L30.9372 22.2917ZM33.6559 30.8854L29.8851 34.6563L31.7705 36.5417L33.6559 34.6563L34.5986 35.599L32.7132 37.4844L34.5986 39.3698L36.4841 37.4844L37.4268 38.4271L35.5413 40.3125L36.9554 41.7292L40.7288 37.9557L33.6559 30.8854Z" fill="white"/>
<defs>
<linearGradient id="paint0_linear_1_323" x1="10.5" y1="2" x2="54" y2="54" gradientUnits="userSpaceOnUse">
<stop stop-color="#6879FF"/>
<stop offset="1" stop-color="#4253ED"/>
</linearGradient>
</defs>
</svg>