<svg xmlns="http://www.w3.org/2000/svg" width="56" height="56" viewBox="0 0 56 56" fill="none">
<circle cx="28" cy="28" r="26" fill="url(#paint0_linear_1_316)"/>
<path fill-rule="evenodd" clip-rule="evenodd" d="M14.9798 38.31H15.0597C15.1131 38.2833 15.1931 38.2567 15.2998 38.23C15.5398 38.19 15.8998 38.11 16.3798 37.99C17.1798 37.75 18.4597 37.31 19.9397 36.67C22.5398 35.55 26.1398 33.47 28.8198 29.95C30.4598 27.75 31.5798 25.23 32.1398 22.43L30.1798 21.99C29.7398 21.91 29.3797 21.59 29.2597 21.15C29.1797 20.71 29.2997 20.23 29.6597 19.95L36.2198 14.27C36.4998 14.03 36.8598 13.95 37.2198 14.03C37.5798 14.11 37.8997 14.35 38.0597 14.67L41.7798 22.43C41.9798 22.83 41.9398 23.31 41.6598 23.67C41.4198 23.99 40.9798 24.19 40.5398 24.11L38.3398 23.79C37.6198 26.03 36.8198 27.91 35.7798 29.59C34.5398 31.67 33.0598 33.39 31.2198 34.87C27.4598 37.87 22.2998 39.75 15.3397 40.67C15.2864 40.67 15.2331 40.67 15.1798 40.67C14.5798 40.67 14.0998 40.27 14.0198 39.67C13.8998 39.03 14.3398 38.43 14.9798 38.31Z" fill="white"/>
<defs>
<linearGradient id="paint0_linear_1_316" x1="10.5" y1="2" x2="54" y2="54" gradientUnits="userSpaceOnUse">
<stop stop-color="#6879FF"/>
<stop offset="1" stop-color="#4253ED"/>
</linearGradient>
</defs>
</svg>