<svg width="115" height="18" viewBox="0 0 115 18" fill="none" xmlns="http://www.w3.org/2000/svg">
<path d="M3.02066 14.5774H10.5315V17.2147H0.234375V0.417358H10.4104V3.05736H3.02066V7.43475H9.80466V10.0434H3.02066V14.5774Z" fill="#080226"/>
<path d="M34.0329 17.2147H30.8595L27.1278 11.1443L23.3987 17.2147H20.2227L25.5529 8.57736L20.5492 0.417358H23.7095L27.1489 6.00779L30.5909 0.417358H33.7512L28.7474 8.57736L34.0329 17.2147Z" fill="#080226"/>
<path d="M44.5742 0.417358H47.3605V17.2147H44.5742V0.417358Z" fill="#080226"/>
<path d="M70.255 0.417358V3.05736H65.4725V17.2147H62.6968V3.05736H57.8984V0.417358H70.255Z" fill="#080226"/>
<path d="M83.5793 14.5774H91.0901V17.2147H80.793V0.417358H90.969V3.05736H83.5793V7.43475H90.3633V10.0434H83.5793V14.5774Z" fill="#080226"/>
<path d="M114.911 17.2147H111.59L104.903 9.22431V17.2147H102.117V0.417358H104.903V7.95649L111.348 0.422573H114.669L107.821 8.60605L114.911 17.2147Z" fill="#080226"/>
</svg>
